Coordinates
version=1
nRows=13
nColumns=22
inDegrees=yes

Units are S.I. units (second, meters, Newtons, ...)
If the header above contains a line with 'inDegrees', this indicates whether rotational values are in degrees (yes) or radians (no).

endheader
time	pelvis_tilt	pelvis_list	pelvis_rotation	pelvis_tx	pelvis_ty	pelvis_tz	hip_flexion_r	hip_adduction_r	hip_rotation_r	knee_angle_r	ankle_angle_r	subtalar_angle_r	hip_flexion_l	hip_adduction_l	hip_rotation_l	knee_angle_l	ankle_angle_l	subtalar_angle_l	lumbar_extension	lumbar_bending	lumbar_rotation
      3.85000000	     -8.58232100	      0.24881356	    -61.85978543	      0.16910082	      0.95964237	      0.87627035	     24.24546495	      5.32269093	    -22.53123083	    -23.24070034	      2.18054441	     -1.11254138	      5.56625881	    -12.25925313	      3.49329027	    -50.40632490	      4.06381412	      8.92547711	      1.30716982	      8.38271316	    -11.44236909
      3.86000000	     -8.69012906	      0.30039377	    -62.35106935	      0.16982737	      0.96043245	      0.88235612	     23.78404171	      5.77776154	    -22.14016919	    -22.89917678	      2.37338646	     -1.15651877	      6.47790893	    -12.33491351	      3.43661700	    -51.31836037	      4.68809201	      8.13771620	      1.30090501	      8.55283967	    -11.20201776
      3.87000000	     -8.77016982	      0.35919344	    -62.83658125	      0.17056087	      0.96120977	      0.88828287	     23.32019986	      6.18962044	    -21.74931302	    -22.56096190	      2.56818081	     -1.20937658	      7.33262668	    -12.35201443	      3.43375975	    -51.99689707	      5.44498868	      7.37730542	      1.28902645	      8.68673479	    -10.95255835
      3.88000000	     -8.83581951	      0.42345480	    -63.31328096	      0.17127218	      0.96197458	      0.89402763	     22.85734074	      6.57918498	    -21.32657656	    -22.21373505	      2.73512130	     -1.25735999	      8.15177493	    -12.32784909	      3.48839800	    -52.46447078	      6.29290491	      6.83489620	      1.27258220	      8.79936768	    -10.72494395
      3.89000000	     -8.87349746	      0.49118854	    -63.77133205	      0.17200850	      0.96272187	      0.89960469	     22.40228276	      6.91113472	    -20.95374692	    -21.89617427	      2.92404480	     -1.30217242	      8.91888605	    -12.24179849	      3.61868532	    -52.71724114	      7.24132597	      6.47772382	      1.24857896	      8.87859771	    -10.48474489
      3.90000000	     -8.90253002	      0.57338504	    -64.19548900	      0.17276046	      0.96345803	      0.90499835	     21.94963798	      7.21696138	    -20.57163496	    -21.54732664	      3.07565621	     -1.35848361	      9.66702003	    -12.10518530	      3.84160204	    -52.76900779	      8.16821202	      6.09187780	      1.23915023	      8.93732676	    -10.29052270
      3.91000000	     -8.90328805	      0.65861518	    -64.58461766	      0.17354247	      0.96418859	      0.91019768	     21.49968568	      7.47041817	    -20.21619395	    -21.20731461	      3.22310890	     -1.42174206	     10.37784248	    -11.90647346	      4.15128335	    -52.63332728	      9.08904584	      5.78505742	      1.22138585	      8.96343336	    -10.13310618
      3.92000000	     -8.89412965	      0.75136135	    -64.94515224	      0.17434263	      0.96490813	      0.91522567	     21.05248503	      7.70023379	    -19.85496355	    -20.84822866	      3.34335088	     -1.52505993	     11.06345262	    -11.66809656	      4.53586624	    -52.32151015	      9.94455831	      5.45575031	      1.20983950	      8.97202255	    -10.00368990
      3.93000000	     -8.85180527	      0.84127281	    -65.25737316	      0.17520849	      0.96562165	      0.92004772	     20.61727750	      7.86201205	    -19.55336711	    -20.52850129	      3.48352787	     -1.56685057	     11.70939604	    -11.36415544	      5.02230002	    -51.84851290	     10.79043625	      5.33845288	      1.18220449	      8.94696321	     -9.91212620
      3.94000000	     -8.82551122	      0.93286852	    -65.57238022	      0.17604345	      0.96628425	      0.92471507	     20.21343012	      8.03120462	    -19.23927851	    -20.22946402	      3.60494327	     -1.63051628	     12.33668333	    -11.07271203	      5.53158048	    -51.23824387	     11.60526789	      5.20249149	      1.15951222	      8.93357809	     -9.79315649
      3.95000000	     -8.77876235	      1.01997808	    -65.88505066	      0.17688514	      0.96694613	      0.92922432	     19.80705004	      8.17871008	    -18.90301150	    -19.93130818	      3.70467820	     -1.81759964	     12.91934035	    -10.75990139	      6.05687595	    -50.48987648	     12.32194095	      4.91511206	      1.11800655	      8.90147212	     -9.64836215
      3.96000000	     -8.73541028	      1.11815443	    -66.14574437	      0.17778243	      0.96756005	      0.93353379	     19.44187827	      8.29100797	    -18.61350442	    -19.66559824	      3.81053143	     -1.86385143	     13.50772397	    -10.42619422	      6.67264023	    -49.63486064	     12.99185442	      4.80798732	      1.09241058	      8.86504747	     -9.56872121
      3.97000000	     -8.64176401	      1.21176835	    -66.42623803	      0.17869385	      0.96818051	      0.93770111	     19.08293829	      8.34684188	    -18.30740127	    -19.45041196	      3.93299911	     -1.99790775	     14.02255796	    -10.04496642	      7.28189039	    -48.65375582	     13.57760794	      4.49810837	      1.03177456	      8.77979629	     -9.43021937
